# xmcd
#
# Track frame offsets: 
#        150
#        12591
#        28465
#        50660
#        61521
#        76057
#        89802
#        110206
#        122868
#        137293
#        153536
#        179517
#        191518
#        204281
#        219941
#        234188
#
# Disc length: 3360 seconds
#
# Revision: 1
# Processed by: cddbd v1.5.2PL0 Copyright (c) Steve Scherf et al.
# Submitted via: ExactAudioCopy v0.95a5
#
DISCID=dc0d1e10
DTITLE=Glenn Miller - Sunset Serenade Premier Show
DYEAR=1992
DGENRE=Big Band
TTITLE0=Here We Go Again
TTITLE1=The Cowboy Serenade
TTITLE2=The Booglie Wooglie Piggy
TTITLE3=Georgia on my Mind
TTITLE4=Sunset Sernade Dialogue
TTITLE5='Till Reveille
TTITLE6=Daddy
TTITLE7=The Things I Love
TTITLE8=Intermezzo
TTITLE9=Program Introduction
TTITLE10=Dasiy Mae
TTITLE11=You Walk By
TTITLE12=Swingin' at the Seance
TTITLE13=Frenesi
TTITLE14=Anvil Chorus
TTITLE15=Program Closing
EXTD=YEAR: 1961
EXTT0=
EXTT1=
EXTT2=
EXTT3=
EXTT4=
EXTT5=
EXTT6=
EXTT7=
EXTT8=
EXTT9=
EXTT10=
EXTT11=
EXTT12=
EXTT13=
EXTT14=
EXTT15=
PLAYORDER=
